# xmcd
#
# Track frame offsets:
#	150
#	9417
#	21692
#	35420
#	47075
#	59797
#	76197
#	88020
#	97775
#	110010
#	120480
#	134985
#
# Disc length: 1986 seconds
#
# Revision: 0
# Processed by: cddbd v1.5.2PL0 Copyright (c) Steve Scherf et al.
# Submitted via: audiograbber 1.83.01
#
DISCID=a207c00c
DTITLE=Compliation - The Banjo Hall of Fame - Vol.3
DYEAR=1900
DGENRE=
TTITLE0=Bluegrass Cardinals - Pretty Red Wing
TTITLE1=Wynn Osborne - Aura Lee (Melodu used for 'Loe Me Tender')
TTITLE2=Don Reno - Mountaineer's Farewall
TTITLE3=Masters - Rambling Gambling Rag
TTITLE4=Raymond Fairchild and Arthur Smith - Grandfather's Clock
TTITLE5=Masters - Lyin' Eyes
TTITLE6=Don Reno and Arthur Smith - Hello Dolly
TTITLE7=Wynn Osborne - Randy Lynn Rag
TTITLE8=Pinnacle Boys - Wheels
TTITLE9=Stonemans - Heartbreak Mountain
TTITLE10=Don Reno - Skyline Drive
TTITLE11=Stonemans - Black Mountain Rag
EXTD=
EXTT0=
EXTT1=
EXTT2=
EXTT3=
EXTT4=
EXTT5=
EXTT6=
EXTT7=
EXTT8=
EXTT9=
EXTT10=
EXTT11=
PLAYORDER=
